<svg xmlns="http://www.w3.org/2000/svg" xmlns:xlink="http://www.w3.org/1999/xlink" width="336" zoomAndPan="magnify" viewBox="0 0 252 143.999998" height="192" preserveAspectRatio="xMidYMid meet" version="1.0"><defs><g/></defs><rect x="-25.2" width="302.4" fill="#ffffff" y="-14.4" height="172.799997" fill-opacity="1"/><rect x="-25.2" width="302.4" fill="#09221f" y="-14.4" height="172.799997" fill-opacity="1"/><g fill="#cab583" fill-opacity="1"><g transform="translate(46.461479, 77.388391)"><g><path d="M -0.28125 -1.921875 C -0.28125 -2.359375 -0.160156 -2.710938 0.078125 -2.984375 C 0.328125 -3.265625 0.679688 -3.40625 1.140625 -3.40625 C 1.546875 -3.40625 1.859375 -3.210938 2.078125 -2.828125 C 2.296875 -2.453125 2.488281 -2.039062 2.65625 -1.59375 C 2.832031 -1.144531 3.015625 -0.734375 3.203125 -0.359375 C 3.398438 0.015625 3.671875 0.203125 4.015625 0.203125 C 4.566406 0.222656 5.113281 0.117188 5.65625 -0.109375 C 6.195312 -0.335938 6.625 -0.703125 6.9375 -1.203125 C 7.125 -1.453125 7.226562 -1.757812 7.25 -2.125 C 7.269531 -2.5 7.28125 -2.914062 7.28125 -3.375 L 7.28125 -22.96875 C 7.28125 -24 7.238281 -24.726562 7.15625 -25.15625 C 7.082031 -25.59375 7.023438 -25.90625 6.984375 -26.09375 C 6.773438 -26.570312 6.414062 -26.960938 5.90625 -27.265625 L 11.140625 -27.265625 C 10.910156 -27.117188 10.703125 -26.921875 10.515625 -26.671875 C 10.265625 -26.347656 10.09375 -25.894531 10 -25.3125 C 9.90625 -24.726562 9.859375 -23.945312 9.859375 -22.96875 L 9.859375 -8.9375 C 9.859375 -6.832031 9.617188 -5.160156 9.140625 -3.921875 C 8.929688 -3.328125 8.644531 -2.753906 8.28125 -2.203125 C 7.914062 -1.648438 7.484375 -1.164062 6.984375 -0.75 C 6.492188 -0.34375 5.953125 -0.0195312 5.359375 0.21875 C 4.765625 0.457031 4.132812 0.578125 3.46875 0.578125 C 2.988281 0.578125 2.488281 0.523438 1.96875 0.421875 C 1.457031 0.328125 1.007812 0.109375 0.625 -0.234375 C 0.0195312 -0.765625 -0.28125 -1.328125 -0.28125 -1.921875 Z M -0.28125 -1.921875 "/></g></g></g><g fill="#cab583" fill-opacity="1"><g transform="translate(60.073504, 77.388391)"><g><path d="M -0.453125 -0.109375 C -0.148438 -0.242188 0.144531 -0.507812 0.4375 -0.90625 C 0.738281 -1.3125 1.023438 -1.753906 1.296875 -2.234375 C 1.578125 -2.710938 1.828125 -3.1875 2.046875 -3.65625 C 2.265625 -4.125 2.429688 -4.5 2.546875 -4.78125 L 12.3125 -27.640625 L 21.96875 -4.53125 C 22.40625 -3.5 22.816406 -2.65625 23.203125 -2 C 23.585938 -1.351562 23.976562 -0.859375 24.375 -0.515625 C 24.46875 -0.441406 24.554688 -0.363281 24.640625 -0.28125 C 24.734375 -0.207031 24.835938 -0.148438 24.953125 -0.109375 L 19.046875 -0.109375 C 19.367188 -0.335938 19.597656 -0.601562 19.734375 -0.90625 C 19.867188 -1.21875 19.9375 -1.546875 19.9375 -1.890625 C 19.9375 -2.234375 19.867188 -2.671875 19.734375 -3.203125 C 19.597656 -3.742188 19.367188 -4.382812 19.046875 -5.125 L 17.15625 -9.5625 L 4.953125 -9.5625 L 2.859375 -4.75 C 2.597656 -4.101562 2.40625 -3.550781 2.28125 -3.09375 C 2.15625 -2.632812 2.09375 -2.242188 2.09375 -1.921875 C 2.09375 -1.691406 2.144531 -1.421875 2.25 -1.109375 C 2.351562 -0.804688 2.597656 -0.492188 2.984375 -0.171875 C 2.984375 -0.171875 3.03125 -0.148438 3.125 -0.109375 Z M 5.046875 -9.828125 L 17.125 -9.828125 L 11.171875 -24.03125 Z M 5.046875 -9.828125 "/></g></g></g><g fill="#cab583" fill-opacity="1"><g transform="translate(87.949948, 77.388391)"><g><path d="M 1.546875 -0.890625 C 1.679688 -1.078125 1.8125 -1.414062 1.9375 -1.90625 C 2.0625 -2.394531 2.125 -3.238281 2.125 -4.4375 L 2.125 -22.96875 C 2.125 -24 2.0625 -24.820312 1.9375 -25.4375 C 1.8125 -26.050781 1.613281 -26.519531 1.34375 -26.84375 C 1.25 -26.914062 1.160156 -26.988281 1.078125 -27.0625 C 1.003906 -27.144531 0.921875 -27.222656 0.828125 -27.296875 L 8.625 -27.265625 C 9.726562 -27.265625 10.882812 -27.171875 12.09375 -26.984375 C 13.3125 -26.796875 14.414062 -26.460938 15.40625 -25.984375 C 16.40625 -25.503906 17.234375 -24.832031 17.890625 -23.96875 C 18.546875 -23.113281 18.875 -22 18.875 -20.625 C 18.875 -19.632812 18.703125 -18.773438 18.359375 -18.046875 C 18.015625 -17.316406 17.539062 -16.6875 16.9375 -16.15625 C 16.34375 -15.625 15.65625 -15.1875 14.875 -14.84375 C 14.101562 -14.5 13.28125 -14.238281 12.40625 -14.0625 L 11.28125 -13.78125 L 17.875 -4.609375 C 18.195312 -4.171875 18.53125 -3.726562 18.875 -3.28125 C 19.21875 -2.832031 19.585938 -2.40625 19.984375 -2 C 20.390625 -1.601562 20.816406 -1.238281 21.265625 -0.90625 C 21.710938 -0.570312 22.1875 -0.304688 22.6875 -0.109375 L 18.5 -0.109375 L 8.828125 -13.46875 C 9.773438 -13.613281 10.65625 -13.859375 11.46875 -14.203125 C 12.28125 -14.546875 12.992188 -15.003906 13.609375 -15.578125 C 14.234375 -16.148438 14.722656 -16.828125 15.078125 -17.609375 C 15.429688 -18.398438 15.609375 -19.3125 15.609375 -20.34375 C 15.609375 -21.351562 15.453125 -22.269531 15.140625 -23.09375 C 14.828125 -23.925781 14.34375 -24.648438 13.6875 -25.265625 C 13.289062 -25.679688 12.910156 -26.003906 12.546875 -26.234375 C 12.179688 -26.460938 11.800781 -26.625 11.40625 -26.71875 C 11.019531 -26.820312 10.601562 -26.890625 10.15625 -26.921875 C 9.707031 -26.960938 9.195312 -26.984375 8.625 -26.984375 L 4.640625 -26.984375 L 4.640625 -4.4375 C 4.640625 -2.394531 4.90625 -1.097656 5.4375 -0.546875 C 5.59375 -0.335938 5.765625 -0.191406 5.953125 -0.109375 L 0.796875 -0.109375 C 0.929688 -0.222656 1.0625 -0.335938 1.1875 -0.453125 C 1.3125 -0.566406 1.429688 -0.710938 1.546875 -0.890625 Z M 1.546875 -0.890625 "/></g></g></g><g fill="#cab583" fill-opacity="1"><g transform="translate(113.592265, 77.388391)"><g><path d="M 0.796875 -0.109375 C 0.929688 -0.222656 1.0625 -0.335938 1.1875 -0.453125 C 1.3125 -0.566406 1.429688 -0.710938 1.546875 -0.890625 C 1.585938 -0.984375 1.644531 -1.109375 1.71875 -1.265625 C 1.789062 -1.429688 1.851562 -1.648438 1.90625 -1.921875 C 1.96875 -2.203125 2.019531 -2.539062 2.0625 -2.9375 C 2.101562 -3.34375 2.125 -3.84375 2.125 -4.4375 L 2.125 -22.96875 C 2.125 -24.9375 1.863281 -26.226562 1.34375 -26.84375 C 1.25 -26.914062 1.160156 -26.988281 1.078125 -27.0625 C 1.003906 -27.144531 0.921875 -27.222656 0.828125 -27.296875 L 8.90625 -27.296875 C 9.65625 -27.296875 10.441406 -27.273438 11.265625 -27.234375 C 12.097656 -27.203125 12.929688 -27.132812 13.765625 -27.03125 C 14.597656 -26.925781 15.410156 -26.78125 16.203125 -26.59375 C 16.992188 -26.414062 17.722656 -26.179688 18.390625 -25.890625 C 19.578125 -25.359375 20.609375 -24.660156 21.484375 -23.796875 C 22.359375 -22.941406 23.082031 -21.988281 23.65625 -20.9375 C 24.226562 -19.882812 24.65625 -18.75 24.9375 -17.53125 C 25.226562 -16.3125 25.375 -15.085938 25.375 -13.859375 C 25.375 -10.046875 24.238281 -6.867188 21.96875 -4.328125 C 21.144531 -3.410156 20.21875 -2.675781 19.1875 -2.125 C 18.15625 -1.582031 17.070312 -1.160156 15.9375 -0.859375 C 14.800781 -0.554688 13.640625 -0.351562 12.453125 -0.25 C 11.273438 -0.15625 10.101562 -0.109375 8.9375 -0.109375 Z M 18.59375 -3.75 C 20.90625 -6.195312 22.0625 -9.484375 22.0625 -13.609375 C 22.0625 -17.785156 20.90625 -21.085938 18.59375 -23.515625 C 17.726562 -24.453125 16.738281 -25.15625 15.625 -25.625 C 14.507812 -26.09375 13.34375 -26.429688 12.125 -26.640625 C 10.914062 -26.847656 9.671875 -26.957031 8.390625 -26.96875 C 7.109375 -26.976562 5.859375 -26.984375 4.640625 -26.984375 L 4.640625 -0.375 C 5.992188 -0.375 7.304688 -0.363281 8.578125 -0.34375 C 9.847656 -0.320312 11.066406 -0.394531 12.234375 -0.5625 C 13.398438 -0.738281 14.515625 -1.066406 15.578125 -1.546875 C 16.648438 -2.023438 17.65625 -2.757812 18.59375 -3.75 Z M 18.59375 -3.75 "/></g></g></g><g fill="#cab583" fill-opacity="1"><g transform="translate(141.880856, 77.388391)"><g><path d="M 0.65625 -26.265625 C 0.65625 -26.648438 0.800781 -27.003906 1.09375 -27.328125 C 1.394531 -27.648438 1.753906 -27.8125 2.171875 -27.8125 C 2.785156 -27.757812 3.3125 -27.519531 3.75 -27.09375 C 4.25 -26.539062 4.488281 -25.835938 4.46875 -24.984375 C 4.425781 -24.046875 4.078125 -23.25 3.421875 -22.59375 C 2.765625 -21.945312 2.015625 -21.484375 1.171875 -21.203125 C 1.328125 -21.316406 1.472656 -21.429688 1.609375 -21.546875 C 1.753906 -21.660156 1.894531 -21.773438 2.03125 -21.890625 C 2.4375 -22.304688 2.675781 -22.734375 2.75 -23.171875 C 2.789062 -23.492188 2.765625 -23.753906 2.671875 -23.953125 C 2.585938 -24.160156 2.488281 -24.3125 2.375 -24.40625 C 2.257812 -24.519531 2.144531 -24.609375 2.03125 -24.671875 C 1.914062 -24.742188 1.765625 -24.828125 1.578125 -24.921875 C 1.285156 -25.054688 1.054688 -25.222656 0.890625 -25.421875 C 0.734375 -25.617188 0.65625 -25.898438 0.65625 -26.265625 Z M 0.65625 -26.265625 "/></g></g></g><g fill="#cab583" fill-opacity="1"><g transform="translate(150.475117, 77.388391)"><g><path d="M 0.6875 -13.78125 C 0.6875 -18.15625 2.15625 -21.6875 5.09375 -24.375 C 6.375 -25.5625 7.738281 -26.445312 9.1875 -27.03125 C 10.644531 -27.613281 12.269531 -27.90625 14.0625 -27.90625 C 15.820312 -27.90625 17.492188 -27.578125 19.078125 -26.921875 C 20.660156 -26.273438 22.101562 -25.273438 23.40625 -23.921875 C 25.976562 -21.265625 27.265625 -17.910156 27.265625 -13.859375 C 27.265625 -11.765625 26.941406 -9.863281 26.296875 -8.15625 C 25.648438 -6.457031 24.675781 -4.921875 23.375 -3.546875 C 22.09375 -2.210938 20.625 -1.191406 18.96875 -0.484375 C 17.320312 0.222656 15.617188 0.578125 13.859375 0.578125 C 12.066406 0.578125 10.375 0.242188 8.78125 -0.421875 C 7.1875 -1.097656 5.757812 -2.09375 4.5 -3.40625 C 1.957031 -6.0625 0.6875 -9.519531 0.6875 -13.78125 Z M 4.0625 -13.890625 C 4.0625 -12.265625 4.203125 -10.609375 4.484375 -8.921875 C 4.773438 -7.234375 5.285156 -5.707031 6.015625 -4.34375 C 6.742188 -2.976562 7.742188 -1.859375 9.015625 -0.984375 C 10.296875 -0.117188 11.910156 0.3125 13.859375 0.3125 C 15.847656 0.3125 17.492188 -0.078125 18.796875 -0.859375 C 20.109375 -1.640625 21.140625 -2.664062 21.890625 -3.9375 C 22.648438 -5.207031 23.179688 -6.65625 23.484375 -8.28125 C 23.796875 -9.90625 23.953125 -11.566406 23.953125 -13.265625 C 23.953125 -18.359375 22.921875 -22.175781 20.859375 -24.71875 C 20.035156 -25.789062 19.066406 -26.546875 17.953125 -26.984375 C 16.847656 -27.421875 15.550781 -27.640625 14.0625 -27.640625 C 12.09375 -27.640625 10.457031 -27.238281 9.15625 -26.4375 C 7.863281 -25.632812 6.835938 -24.582031 6.078125 -23.28125 C 5.328125 -21.988281 4.800781 -20.523438 4.5 -18.890625 C 4.207031 -17.253906 4.0625 -15.585938 4.0625 -13.890625 Z M 4.0625 -13.890625 "/></g></g></g><g fill="#cab583" fill-opacity="1"><g transform="translate(181.823034, 77.388391)"><g><path d="M 1.546875 -0.890625 C 1.679688 -1.078125 1.8125 -1.414062 1.9375 -1.90625 C 2.0625 -2.394531 2.125 -3.238281 2.125 -4.4375 L 2.125 -22.96875 C 2.125 -24 2.0625 -24.820312 1.9375 -25.4375 C 1.8125 -26.050781 1.613281 -26.519531 1.34375 -26.84375 C 1.25 -26.914062 1.160156 -26.988281 1.078125 -27.0625 C 1.003906 -27.144531 0.921875 -27.222656 0.828125 -27.296875 L 8.625 -27.265625 C 9.726562 -27.265625 10.882812 -27.171875 12.09375 -26.984375 C 13.3125 -26.796875 14.414062 -26.460938 15.40625 -25.984375 C 16.40625 -25.503906 17.234375 -24.832031 17.890625 -23.96875 C 18.546875 -23.113281 18.875 -22 18.875 -20.625 C 18.875 -19.632812 18.703125 -18.773438 18.359375 -18.046875 C 18.015625 -17.316406 17.539062 -16.6875 16.9375 -16.15625 C 16.34375 -15.625 15.65625 -15.1875 14.875 -14.84375 C 14.101562 -14.5 13.28125 -14.238281 12.40625 -14.0625 L 11.28125 -13.78125 L 17.875 -4.609375 C 18.195312 -4.171875 18.53125 -3.726562 18.875 -3.28125 C 19.21875 -2.832031 19.585938 -2.40625 19.984375 -2 C 20.390625 -1.601562 20.816406 -1.238281 21.265625 -0.90625 C 21.710938 -0.570312 22.1875 -0.304688 22.6875 -0.109375 L 18.5 -0.109375 L 8.828125 -13.46875 C 9.773438 -13.613281 10.65625 -13.859375 11.46875 -14.203125 C 12.28125 -14.546875 12.992188 -15.003906 13.609375 -15.578125 C 14.234375 -16.148438 14.722656 -16.828125 15.078125 -17.609375 C 15.429688 -18.398438 15.609375 -19.3125 15.609375 -20.34375 C 15.609375 -21.351562 15.453125 -22.269531 15.140625 -23.09375 C 14.828125 -23.925781 14.34375 -24.648438 13.6875 -25.265625 C 13.289062 -25.679688 12.910156 -26.003906 12.546875 -26.234375 C 12.179688 -26.460938 11.800781 -26.625 11.40625 -26.71875 C 11.019531 -26.820312 10.601562 -26.890625 10.15625 -26.921875 C 9.707031 -26.960938 9.195312 -26.984375 8.625 -26.984375 L 4.640625 -26.984375 L 4.640625 -4.4375 C 4.640625 -2.394531 4.90625 -1.097656 5.4375 -0.546875 C 5.59375 -0.335938 5.765625 -0.191406 5.953125 -0.109375 L 0.796875 -0.109375 C 0.929688 -0.222656 1.0625 -0.335938 1.1875 -0.453125 C 1.3125 -0.566406 1.429688 -0.710938 1.546875 -0.890625 Z M 1.546875 -0.890625 "/></g></g></g><g fill="#cab583" fill-opacity="1"><g transform="translate(47.793108, 94.456432)"><g><path d="M 1.171875 -8.5 C 1.285156 -8.476562 1.394531 -8.460938 1.5 -8.453125 C 1.601562 -8.441406 1.707031 -8.4375 1.8125 -8.4375 C 2 -8.4375 2.175781 -8.457031 2.34375 -8.5 C 2.332031 -8.40625 2.316406 -8.234375 2.296875 -7.984375 C 2.285156 -7.734375 2.269531 -7.421875 2.25 -7.046875 C 2.238281 -6.671875 2.226562 -6.25 2.21875 -5.78125 C 2.207031 -5.3125 2.203125 -4.8125 2.203125 -4.28125 C 2.203125 -3.820312 2.210938 -3.382812 2.234375 -2.96875 C 2.253906 -2.5625 2.332031 -2.1875 2.46875 -1.84375 C 2.664062 -1.289062 2.976562 -0.90625 3.40625 -0.6875 C 3.84375 -0.46875 4.363281 -0.359375 4.96875 -0.359375 C 5.457031 -0.359375 5.867188 -0.4375 6.203125 -0.59375 C 6.535156 -0.75 6.804688 -0.960938 7.015625 -1.234375 C 7.109375 -1.359375 7.195312 -1.507812 7.28125 -1.6875 C 7.363281 -1.863281 7.429688 -2.070312 7.484375 -2.3125 C 7.546875 -2.5625 7.59375 -2.847656 7.625 -3.171875 C 7.65625 -3.492188 7.671875 -3.878906 7.671875 -4.328125 L 7.671875 -6.21875 C 7.671875 -7.425781 7.648438 -8.1875 7.609375 -8.5 C 7.691406 -8.476562 7.773438 -8.460938 7.859375 -8.453125 C 7.941406 -8.441406 8.019531 -8.4375 8.09375 -8.4375 C 8.175781 -8.4375 8.242188 -8.441406 8.296875 -8.453125 C 8.359375 -8.460938 8.421875 -8.476562 8.484375 -8.5 C 8.472656 -8.3125 8.457031 -8.046875 8.4375 -7.703125 C 8.414062 -7.359375 8.394531 -6.960938 8.375 -6.515625 C 8.351562 -6.066406 8.332031 -5.578125 8.3125 -5.046875 C 8.289062 -4.515625 8.273438 -3.96875 8.265625 -3.40625 C 8.242188 -2.21875 7.921875 -1.316406 7.296875 -0.703125 C 6.671875 -0.0859375 5.8125 0.21875 4.71875 0.21875 C 3.5 0.21875 2.601562 -0.0625 2.03125 -0.625 C 1.457031 -1.195312 1.171875 -2.101562 1.171875 -3.34375 C 1.171875 -3.65625 1.179688 -3.992188 1.203125 -4.359375 C 1.222656 -4.722656 1.234375 -5.050781 1.234375 -5.34375 C 1.234375 -5.519531 1.234375 -5.691406 1.234375 -5.859375 C 1.234375 -6.023438 1.226562 -6.21875 1.21875 -6.4375 C 1.21875 -6.664062 1.210938 -6.941406 1.203125 -7.265625 C 1.191406 -7.585938 1.179688 -8 1.171875 -8.5 Z M 1.171875 -8.5 "/></g></g></g><g fill="#cab583" fill-opacity="1"><g transform="translate(59.275559, 94.456432)"><g><path d="M 1.53125 -8.65625 C 2.019531 -8.125 2.523438 -7.566406 3.046875 -6.984375 C 3.578125 -6.410156 4.113281 -5.832031 4.65625 -5.25 C 5.195312 -4.675781 5.734375 -4.109375 6.265625 -3.546875 C 6.804688 -2.984375 7.320312 -2.453125 7.8125 -1.953125 L 7.8125 -2.796875 C 7.8125 -3.273438 7.804688 -3.78125 7.796875 -4.3125 C 7.796875 -4.851562 7.789062 -5.378906 7.78125 -5.890625 C 7.78125 -6.398438 7.769531 -6.882812 7.75 -7.34375 C 7.738281 -7.800781 7.726562 -8.1875 7.71875 -8.5 C 7.882812 -8.457031 8.023438 -8.4375 8.140625 -8.4375 C 8.265625 -8.4375 8.394531 -8.457031 8.53125 -8.5 C 8.519531 -8.332031 8.503906 -8.078125 8.484375 -7.734375 C 8.460938 -7.398438 8.441406 -7.023438 8.421875 -6.609375 C 8.398438 -6.203125 8.378906 -5.785156 8.359375 -5.359375 C 8.347656 -4.941406 8.34375 -4.566406 8.34375 -4.234375 C 8.34375 -3.753906 8.34375 -3.265625 8.34375 -2.765625 C 8.34375 -2.265625 8.34375 -1.804688 8.34375 -1.390625 C 8.34375 -0.972656 8.34375 -0.617188 8.34375 -0.328125 C 8.351562 -0.0351562 8.359375 0.144531 8.359375 0.21875 L 8.203125 0.21875 C 6.566406 -1.675781 4.476562 -3.960938 1.9375 -6.640625 C 1.925781 -6.421875 1.914062 -6.234375 1.90625 -6.078125 C 1.90625 -5.921875 1.898438 -5.753906 1.890625 -5.578125 C 1.890625 -5.398438 1.890625 -5.191406 1.890625 -4.953125 C 1.890625 -4.710938 1.890625 -4.398438 1.890625 -4.015625 C 1.890625 -3.828125 1.890625 -3.601562 1.890625 -3.34375 C 1.890625 -3.082031 1.894531 -2.789062 1.90625 -2.46875 L 1.953125 -0.75 C 1.960938 -0.507812 1.972656 -0.316406 1.984375 -0.171875 C 2.003906 -0.0351562 2.015625 0.0390625 2.015625 0.0625 C 1.941406 0.0390625 1.867188 0.0234375 1.796875 0.015625 C 1.722656 0.00390625 1.648438 0 1.578125 0 C 1.503906 0 1.425781 0.00390625 1.34375 0.015625 C 1.269531 0.0234375 1.191406 0.0390625 1.109375 0.0625 C 1.128906 0 1.148438 -0.148438 1.171875 -0.390625 C 1.191406 -0.628906 1.207031 -0.910156 1.21875 -1.234375 C 1.238281 -1.566406 1.257812 -1.925781 1.28125 -2.3125 C 1.300781 -2.695312 1.316406 -3.070312 1.328125 -3.4375 C 1.347656 -3.8125 1.359375 -4.15625 1.359375 -4.46875 C 1.367188 -4.78125 1.375 -5.023438 1.375 -5.203125 L 1.375 -6.640625 C 1.375 -7.054688 1.367188 -7.421875 1.359375 -7.734375 C 1.359375 -8.054688 1.351562 -8.363281 1.34375 -8.65625 Z M 1.53125 -8.65625 "/></g></g></g><g fill="#cab583" fill-opacity="1"><g transform="translate(70.758011, 94.456432)"><g/></g></g><g fill="#cab583" fill-opacity="1"><g transform="translate(74.899994, 94.456432)"><g><path d="M 0.203125 -8.5 C 0.328125 -8.476562 0.441406 -8.460938 0.546875 -8.453125 C 0.648438 -8.441406 0.753906 -8.4375 0.859375 -8.4375 C 0.953125 -8.4375 1.050781 -8.441406 1.15625 -8.453125 C 1.269531 -8.460938 1.382812 -8.476562 1.5 -8.5 C 1.8125 -7.550781 2.207031 -6.457031 2.6875 -5.21875 C 3.164062 -3.988281 3.710938 -2.640625 4.328125 -1.171875 C 4.523438 -1.617188 4.75 -2.160156 5 -2.796875 C 5.257812 -3.441406 5.519531 -4.101562 5.78125 -4.78125 C 6.050781 -5.46875 6.300781 -6.140625 6.53125 -6.796875 C 6.769531 -7.460938 6.972656 -8.03125 7.140625 -8.5 C 7.304688 -8.457031 7.460938 -8.4375 7.609375 -8.4375 C 7.742188 -8.4375 7.894531 -8.457031 8.0625 -8.5 C 7.394531 -7.03125 6.769531 -5.59375 6.1875 -4.1875 C 5.601562 -2.789062 5.035156 -1.375 4.484375 0.0625 C 4.410156 0.0390625 4.34375 0.0234375 4.28125 0.015625 C 4.21875 0.00390625 4.148438 0 4.078125 0 C 3.953125 0 3.816406 0.0195312 3.671875 0.0625 C 3.484375 -0.4375 3.253906 -1.023438 2.984375 -1.703125 C 2.710938 -2.390625 2.421875 -3.109375 2.109375 -3.859375 C 1.804688 -4.617188 1.492188 -5.394531 1.171875 -6.1875 C 0.847656 -6.976562 0.523438 -7.75 0.203125 -8.5 Z M 0.203125 -8.5 "/></g></g></g><g fill="#cab583" fill-opacity="1"><g transform="translate(84.547237, 94.456432)"><g><path d="M 1.734375 -4.21875 C 1.734375 -3.582031 1.8125 -3.015625 1.96875 -2.515625 C 2.125 -2.023438 2.351562 -1.609375 2.65625 -1.265625 C 2.957031 -0.929688 3.316406 -0.675781 3.734375 -0.5 C 4.148438 -0.320312 4.625 -0.234375 5.15625 -0.234375 C 5.6875 -0.234375 6.164062 -0.320312 6.59375 -0.5 C 7.019531 -0.675781 7.378906 -0.929688 7.671875 -1.265625 C 7.972656 -1.609375 8.203125 -2.023438 8.359375 -2.515625 C 8.515625 -3.015625 8.59375 -3.582031 8.59375 -4.21875 C 8.59375 -5.488281 8.285156 -6.46875 7.671875 -7.15625 C 7.066406 -7.851562 6.226562 -8.203125 5.15625 -8.203125 C 4.625 -8.203125 4.148438 -8.113281 3.734375 -7.9375 C 3.316406 -7.757812 2.957031 -7.5 2.65625 -7.15625 C 2.351562 -6.820312 2.125 -6.40625 1.96875 -5.90625 C 1.8125 -5.414062 1.734375 -4.851562 1.734375 -4.21875 Z M 5.15625 -8.65625 C 5.851562 -8.65625 6.488281 -8.550781 7.0625 -8.34375 C 7.632812 -8.144531 8.125 -7.851562 8.53125 -7.46875 C 8.9375 -7.09375 9.25 -6.628906 9.46875 -6.078125 C 9.695312 -5.535156 9.8125 -4.914062 9.8125 -4.21875 C 9.8125 -3.519531 9.695312 -2.894531 9.46875 -2.34375 C 9.25 -1.800781 8.9375 -1.335938 8.53125 -0.953125 C 8.125 -0.578125 7.632812 -0.285156 7.0625 -0.078125 C 6.488281 0.117188 5.851562 0.21875 5.15625 0.21875 C 4.46875 0.21875 3.84375 0.117188 3.28125 -0.078125 C 2.71875 -0.273438 2.226562 -0.5625 1.8125 -0.9375 C 1.40625 -1.320312 1.085938 -1.785156 0.859375 -2.328125 C 0.628906 -2.878906 0.515625 -3.507812 0.515625 -4.21875 C 0.515625 -4.894531 0.625 -5.503906 0.84375 -6.046875 C 1.0625 -6.597656 1.367188 -7.066406 1.765625 -7.453125 C 2.171875 -7.835938 2.660156 -8.132812 3.234375 -8.34375 C 3.804688 -8.550781 4.445312 -8.65625 5.15625 -8.65625 Z M 5.15625 -8.65625 "/></g></g></g><g fill="#cab583" fill-opacity="1"><g transform="translate(95.793631, 94.456432)"><g><path d="M 0.265625 -8.5 C 0.390625 -8.476562 0.503906 -8.460938 0.609375 -8.453125 C 0.722656 -8.441406 0.835938 -8.4375 0.953125 -8.4375 C 1.066406 -8.4375 1.179688 -8.441406 1.296875 -8.453125 C 1.410156 -8.460938 1.523438 -8.476562 1.640625 -8.5 C 2.015625 -7.75 2.398438 -7.019531 2.796875 -6.3125 C 3.191406 -5.613281 3.59375 -4.910156 4 -4.203125 C 4.195312 -4.515625 4.398438 -4.851562 4.609375 -5.21875 C 4.828125 -5.582031 5.039062 -5.953125 5.25 -6.328125 C 5.457031 -6.703125 5.648438 -7.078125 5.828125 -7.453125 C 6.015625 -7.828125 6.1875 -8.175781 6.34375 -8.5 C 6.425781 -8.476562 6.503906 -8.460938 6.578125 -8.453125 C 6.660156 -8.441406 6.742188 -8.4375 6.828125 -8.4375 C 6.941406 -8.4375 7.101562 -8.457031 7.3125 -8.5 C 6.894531 -7.875 6.523438 -7.3125 6.203125 -6.8125 C 5.890625 -6.3125 5.613281 -5.863281 5.375 -5.46875 C 5.132812 -5.082031 4.925781 -4.734375 4.75 -4.421875 C 4.570312 -4.117188 4.425781 -3.84375 4.3125 -3.59375 C 4.3125 -3.238281 4.3125 -2.878906 4.3125 -2.515625 C 4.3125 -2.148438 4.316406 -1.804688 4.328125 -1.484375 C 4.335938 -1.160156 4.347656 -0.863281 4.359375 -0.59375 C 4.367188 -0.320312 4.382812 -0.101562 4.40625 0.0625 C 4.300781 0.0390625 4.195312 0.0234375 4.09375 0.015625 C 3.988281 0.00390625 3.890625 0 3.796875 0 C 3.691406 0 3.59375 0.00390625 3.5 0.015625 C 3.40625 0.0234375 3.300781 0.0390625 3.1875 0.0625 C 3.207031 -0.113281 3.222656 -0.300781 3.234375 -0.5 C 3.242188 -0.707031 3.253906 -0.941406 3.265625 -1.203125 C 3.273438 -1.460938 3.28125 -1.773438 3.28125 -2.140625 C 3.28125 -2.503906 3.28125 -2.945312 3.28125 -3.46875 C 3.195312 -3.601562 3.03125 -3.882812 2.78125 -4.3125 C 2.539062 -4.75 2.195312 -5.332031 1.75 -6.0625 C 1.300781 -6.8125 0.957031 -7.382812 0.71875 -7.78125 C 0.476562 -8.175781 0.328125 -8.414062 0.265625 -8.5 Z M 0.265625 -8.5 "/></g></g></g><g fill="#cab583" fill-opacity="1"><g transform="translate(104.523275, 94.456432)"><g><path d="M 2.5625 -3.828125 C 2.71875 -3.828125 2.910156 -3.820312 3.140625 -3.8125 C 3.367188 -3.8125 3.632812 -3.8125 3.9375 -3.8125 C 4.007812 -3.8125 4.097656 -3.8125 4.203125 -3.8125 C 4.304688 -3.820312 4.421875 -3.828125 4.546875 -3.828125 C 4.679688 -3.828125 4.8125 -3.828125 4.9375 -3.828125 C 5.070312 -3.828125 5.191406 -3.828125 5.296875 -3.828125 L 3.921875 -6.984375 Z M 4.328125 -8.65625 L 5.828125 -5.09375 C 6.421875 -3.644531 6.910156 -2.476562 7.296875 -1.59375 C 7.691406 -0.71875 7.945312 -0.164062 8.0625 0.0625 C 7.945312 0.0390625 7.835938 0.0234375 7.734375 0.015625 C 7.628906 0.00390625 7.519531 0 7.40625 0 C 7.289062 0 7.175781 0.00390625 7.0625 0.015625 C 6.945312 0.0234375 6.84375 0.0390625 6.75 0.0625 C 6.601562 -0.40625 6.414062 -0.925781 6.1875 -1.5 C 5.957031 -2.082031 5.71875 -2.671875 5.46875 -3.265625 C 5.207031 -3.273438 4.9375 -3.28125 4.65625 -3.28125 C 4.382812 -3.28125 4.117188 -3.28125 3.859375 -3.28125 C 3.597656 -3.28125 3.335938 -3.273438 3.078125 -3.265625 C 2.816406 -3.265625 2.566406 -3.265625 2.328125 -3.265625 C 2.160156 -2.835938 2.007812 -2.457031 1.875 -2.125 C 1.75 -1.800781 1.640625 -1.503906 1.546875 -1.234375 C 1.453125 -0.972656 1.367188 -0.734375 1.296875 -0.515625 C 1.234375 -0.304688 1.175781 -0.113281 1.125 0.0625 C 1.039062 0.0390625 0.960938 0.0234375 0.890625 0.015625 C 0.816406 0.00390625 0.742188 0 0.671875 0 C 0.597656 0 0.519531 0.00390625 0.4375 0.015625 C 0.363281 0.0234375 0.285156 0.0390625 0.203125 0.0625 C 0.460938 -0.5 0.757812 -1.148438 1.09375 -1.890625 C 1.425781 -2.640625 1.769531 -3.410156 2.125 -4.203125 C 2.476562 -4.992188 2.828125 -5.773438 3.171875 -6.546875 C 3.515625 -7.328125 3.820312 -8.03125 4.09375 -8.65625 Z M 4.328125 -8.65625 "/></g></g></g><g fill="#cab583" fill-opacity="1"><g transform="translate(114.071287, 94.456432)"><g><path d="M 5.609375 -8.65625 C 6.203125 -8.65625 6.753906 -8.601562 7.265625 -8.5 C 7.785156 -8.394531 8.285156 -8.207031 8.765625 -7.9375 C 8.691406 -7.8125 8.628906 -7.648438 8.578125 -7.453125 C 8.523438 -7.265625 8.488281 -7.109375 8.46875 -6.984375 L 8.328125 -6.984375 C 7.972656 -7.390625 7.554688 -7.691406 7.078125 -7.890625 C 6.609375 -8.097656 6.113281 -8.203125 5.59375 -8.203125 C 5.03125 -8.203125 4.523438 -8.113281 4.078125 -7.9375 C 3.628906 -7.757812 3.25 -7.5 2.9375 -7.15625 C 2.625 -6.820312 2.378906 -6.40625 2.203125 -5.90625 C 2.035156 -5.40625 1.953125 -4.84375 1.953125 -4.21875 C 1.953125 -3.601562 2.035156 -3.050781 2.203125 -2.5625 C 2.378906 -2.082031 2.625 -1.671875 2.9375 -1.328125 C 3.257812 -0.992188 3.644531 -0.738281 4.09375 -0.5625 C 4.550781 -0.382812 5.070312 -0.296875 5.65625 -0.296875 C 6.007812 -0.296875 6.375 -0.328125 6.75 -0.390625 C 7.125 -0.460938 7.421875 -0.5625 7.640625 -0.6875 C 7.640625 -0.726562 7.644531 -0.878906 7.65625 -1.140625 C 7.664062 -1.398438 7.671875 -1.738281 7.671875 -2.15625 C 7.671875 -2.269531 7.671875 -2.378906 7.671875 -2.484375 C 7.671875 -2.597656 7.664062 -2.703125 7.65625 -2.796875 L 7.609375 -3.890625 C 7.816406 -3.847656 8.015625 -3.828125 8.203125 -3.828125 C 8.296875 -3.828125 8.382812 -3.832031 8.46875 -3.84375 C 8.5625 -3.851562 8.648438 -3.867188 8.734375 -3.890625 C 8.710938 -3.546875 8.695312 -3.1875 8.6875 -2.8125 C 8.6875 -2.4375 8.6875 -1.988281 8.6875 -1.46875 L 8.703125 -0.375 C 8.453125 -0.289062 8.179688 -0.210938 7.890625 -0.140625 C 7.597656 -0.0664062 7.304688 -0.00390625 7.015625 0.046875 C 6.734375 0.109375 6.460938 0.148438 6.203125 0.171875 C 5.941406 0.203125 5.710938 0.21875 5.515625 0.21875 C 4.765625 0.21875 4.09375 0.125 3.5 -0.0625 C 2.914062 -0.257812 2.414062 -0.546875 2 -0.921875 C 1.59375 -1.304688 1.28125 -1.773438 1.0625 -2.328125 C 0.851562 -2.878906 0.75 -3.507812 0.75 -4.21875 C 0.75 -4.914062 0.859375 -5.535156 1.078125 -6.078125 C 1.304688 -6.628906 1.628906 -7.09375 2.046875 -7.46875 C 2.472656 -7.851562 2.984375 -8.144531 3.578125 -8.34375 C 4.179688 -8.550781 4.859375 -8.65625 5.609375 -8.65625 Z M 5.609375 -8.65625 "/></g></g></g><g fill="#cab583" fill-opacity="1"><g transform="translate(125.553738, 94.456432)"><g><path d="M 1.109375 -8.5 C 1.515625 -8.476562 1.894531 -8.460938 2.25 -8.453125 C 2.601562 -8.441406 2.96875 -8.4375 3.34375 -8.4375 C 3.707031 -8.4375 4.0625 -8.441406 4.40625 -8.453125 C 4.757812 -8.460938 5.140625 -8.476562 5.546875 -8.5 C 5.523438 -8.425781 5.515625 -8.359375 5.515625 -8.296875 C 5.515625 -8.242188 5.515625 -8.1875 5.515625 -8.125 C 5.515625 -7.988281 5.523438 -7.863281 5.546875 -7.75 C 5.242188 -7.78125 4.984375 -7.804688 4.765625 -7.828125 C 4.554688 -7.847656 4.335938 -7.863281 4.109375 -7.875 C 3.878906 -7.882812 3.625 -7.894531 3.34375 -7.90625 C 3.0625 -7.914062 2.707031 -7.921875 2.28125 -7.921875 C 2.269531 -7.585938 2.257812 -7.300781 2.25 -7.0625 C 2.238281 -6.820312 2.234375 -6.570312 2.234375 -6.3125 L 2.25 -4.703125 C 2.539062 -4.703125 2.800781 -4.703125 3.03125 -4.703125 C 3.269531 -4.710938 3.503906 -4.71875 3.734375 -4.71875 C 3.960938 -4.726562 4.195312 -4.738281 4.4375 -4.75 C 4.6875 -4.769531 4.960938 -4.796875 5.265625 -4.828125 C 5.234375 -4.710938 5.21875 -4.582031 5.21875 -4.4375 C 5.21875 -4.300781 5.234375 -4.175781 5.265625 -4.0625 C 5.171875 -4.070312 5.023438 -4.082031 4.828125 -4.09375 C 4.628906 -4.113281 4.394531 -4.128906 4.125 -4.140625 C 3.851562 -4.148438 3.554688 -4.160156 3.234375 -4.171875 C 2.910156 -4.179688 2.582031 -4.1875 2.25 -4.1875 L 2.234375 -2.53125 C 2.234375 -2.4375 2.234375 -2.285156 2.234375 -2.078125 C 2.242188 -1.878906 2.25 -1.664062 2.25 -1.4375 C 2.25 -1.21875 2.25 -1.015625 2.25 -0.828125 C 2.257812 -0.648438 2.265625 -0.546875 2.265625 -0.515625 L 2.5625 -0.515625 C 3.363281 -0.515625 4.015625 -0.53125 4.515625 -0.5625 C 5.015625 -0.601562 5.378906 -0.644531 5.609375 -0.6875 C 5.585938 -0.519531 5.578125 -0.390625 5.578125 -0.296875 C 5.578125 -0.234375 5.578125 -0.164062 5.578125 -0.09375 C 5.578125 -0.03125 5.585938 0.0195312 5.609375 0.0625 C 5.203125 0.0390625 4.820312 0.0234375 4.46875 0.015625 C 4.113281 0.00390625 3.75 0 3.375 0 C 3 0 2.628906 0.00390625 2.265625 0.015625 C 1.898438 0.0234375 1.515625 0.0390625 1.109375 0.0625 C 1.140625 -0.476562 1.164062 -1.015625 1.1875 -1.546875 C 1.207031 -2.085938 1.21875 -2.570312 1.21875 -3 L 1.21875 -5.453125 C 1.21875 -5.609375 1.21875 -5.773438 1.21875 -5.953125 C 1.21875 -6.128906 1.210938 -6.332031 1.203125 -6.5625 C 1.191406 -6.800781 1.179688 -7.078125 1.171875 -7.390625 C 1.160156 -7.703125 1.140625 -8.070312 1.109375 -8.5 Z M 1.109375 -8.5 "/></g></g></g><g fill="#cab583" fill-opacity="1"><g transform="translate(133.589424, 94.456432)"><g/></g></g><g fill="#cab583" fill-opacity="1"><g transform="translate(138.872669, 94.456432)"><g><path d="M 2.3125 -7.859375 C 2.289062 -7.648438 2.273438 -7.4375 2.265625 -7.21875 C 2.265625 -7 2.257812 -6.78125 2.25 -6.5625 C 2.238281 -6.351562 2.234375 -6.15625 2.234375 -5.96875 C 2.234375 -5.78125 2.234375 -5.609375 2.234375 -5.453125 L 2.234375 -2.984375 C 2.234375 -2.703125 2.238281 -2.335938 2.25 -1.890625 C 2.257812 -1.453125 2.28125 -0.992188 2.3125 -0.515625 C 2.382812 -0.503906 2.484375 -0.488281 2.609375 -0.46875 C 2.734375 -0.457031 2.867188 -0.445312 3.015625 -0.4375 C 3.160156 -0.425781 3.3125 -0.414062 3.46875 -0.40625 C 3.625 -0.394531 3.773438 -0.390625 3.921875 -0.390625 C 6.460938 -0.390625 7.734375 -1.722656 7.734375 -4.390625 C 7.734375 -5.023438 7.664062 -5.570312 7.53125 -6.03125 C 7.40625 -6.488281 7.195312 -6.859375 6.90625 -7.140625 C 6.613281 -7.429688 6.242188 -7.644531 5.796875 -7.78125 C 5.347656 -7.914062 4.804688 -7.984375 4.171875 -7.984375 C 3.859375 -7.984375 3.546875 -7.972656 3.234375 -7.953125 C 2.929688 -7.929688 2.625 -7.898438 2.3125 -7.859375 Z M 1.109375 -8.5 C 1.441406 -8.476562 1.765625 -8.460938 2.078125 -8.453125 C 2.390625 -8.441406 2.691406 -8.4375 2.984375 -8.4375 C 3.304688 -8.4375 3.617188 -8.445312 3.921875 -8.46875 C 4.234375 -8.488281 4.539062 -8.5 4.84375 -8.5 C 6.25 -8.5 7.285156 -8.160156 7.953125 -7.484375 C 8.617188 -6.804688 8.953125 -5.773438 8.953125 -4.390625 C 8.953125 -3.648438 8.828125 -3.003906 8.578125 -2.453125 C 8.335938 -1.898438 8.007812 -1.4375 7.59375 -1.0625 C 7.1875 -0.695312 6.707031 -0.414062 6.15625 -0.21875 C 5.601562 -0.03125 5.023438 0.0625 4.421875 0.0625 C 4.160156 0.0625 3.890625 0.0507812 3.609375 0.03125 C 3.335938 0.0078125 3.054688 0 2.765625 0 C 2.503906 0 2.238281 0.00390625 1.96875 0.015625 C 1.695312 0.0234375 1.410156 0.0390625 1.109375 0.0625 C 1.140625 -0.476562 1.164062 -1.015625 1.1875 -1.546875 C 1.207031 -2.078125 1.21875 -2.554688 1.21875 -2.984375 L 1.21875 -5.453125 C 1.21875 -5.878906 1.207031 -6.351562 1.1875 -6.875 C 1.164062 -7.40625 1.140625 -7.945312 1.109375 -8.5 Z M 1.109375 -8.5 "/></g></g></g><g fill="#cab583" fill-opacity="1"><g transform="translate(150.355121, 94.456432)"><g><path d="M 1.109375 -8.5 C 1.515625 -8.476562 1.894531 -8.460938 2.25 -8.453125 C 2.601562 -8.441406 2.96875 -8.4375 3.34375 -8.4375 C 3.707031 -8.4375 4.0625 -8.441406 4.40625 -8.453125 C 4.757812 -8.460938 5.140625 -8.476562 5.546875 -8.5 C 5.523438 -8.425781 5.515625 -8.359375 5.515625 -8.296875 C 5.515625 -8.242188 5.515625 -8.1875 5.515625 -8.125 C 5.515625 -7.988281 5.523438 -7.863281 5.546875 -7.75 C 5.242188 -7.78125 4.984375 -7.804688 4.765625 -7.828125 C 4.554688 -7.847656 4.335938 -7.863281 4.109375 -7.875 C 3.878906 -7.882812 3.625 -7.894531 3.34375 -7.90625 C 3.0625 -7.914062 2.707031 -7.921875 2.28125 -7.921875 C 2.269531 -7.585938 2.257812 -7.300781 2.25 -7.0625 C 2.238281 -6.820312 2.234375 -6.570312 2.234375 -6.3125 L 2.25 -4.703125 C 2.539062 -4.703125 2.800781 -4.703125 3.03125 -4.703125 C 3.269531 -4.710938 3.503906 -4.71875 3.734375 -4.71875 C 3.960938 -4.726562 4.195312 -4.738281 4.4375 -4.75 C 4.6875 -4.769531 4.960938 -4.796875 5.265625 -4.828125 C 5.234375 -4.710938 5.21875 -4.582031 5.21875 -4.4375 C 5.21875 -4.300781 5.234375 -4.175781 5.265625 -4.0625 C 5.171875 -4.070312 5.023438 -4.082031 4.828125 -4.09375 C 4.628906 -4.113281 4.394531 -4.128906 4.125 -4.140625 C 3.851562 -4.148438 3.554688 -4.160156 3.234375 -4.171875 C 2.910156 -4.179688 2.582031 -4.1875 2.25 -4.1875 L 2.234375 -2.53125 C 2.234375 -2.4375 2.234375 -2.285156 2.234375 -2.078125 C 2.242188 -1.878906 2.25 -1.664062 2.25 -1.4375 C 2.25 -1.21875 2.25 -1.015625 2.25 -0.828125 C 2.257812 -0.648438 2.265625 -0.546875 2.265625 -0.515625 L 2.5625 -0.515625 C 3.363281 -0.515625 4.015625 -0.53125 4.515625 -0.5625 C 5.015625 -0.601562 5.378906 -0.644531 5.609375 -0.6875 C 5.585938 -0.519531 5.578125 -0.390625 5.578125 -0.296875 C 5.578125 -0.234375 5.578125 -0.164062 5.578125 -0.09375 C 5.578125 -0.03125 5.585938 0.0195312 5.609375 0.0625 C 5.203125 0.0390625 4.820312 0.0234375 4.46875 0.015625 C 4.113281 0.00390625 3.75 0 3.375 0 C 3 0 2.628906 0.00390625 2.265625 0.015625 C 1.898438 0.0234375 1.515625 0.0390625 1.109375 0.0625 C 1.140625 -0.476562 1.164062 -1.015625 1.1875 -1.546875 C 1.207031 -2.085938 1.21875 -2.570312 1.21875 -3 L 1.21875 -5.453125 C 1.21875 -5.609375 1.21875 -5.773438 1.21875 -5.953125 C 1.21875 -6.128906 1.210938 -6.332031 1.203125 -6.5625 C 1.191406 -6.800781 1.179688 -7.078125 1.171875 -7.390625 C 1.160156 -7.703125 1.140625 -8.070312 1.109375 -8.5 Z M 1.109375 -8.5 "/></g></g></g><g fill="#cab583" fill-opacity="1"><g transform="translate(158.390807, 94.456432)"><g/></g></g><g fill="#cab583" fill-opacity="1"><g transform="translate(163.674052, 94.456432)"><g><path d="M 5.609375 -8.65625 C 6.203125 -8.65625 6.753906 -8.601562 7.265625 -8.5 C 7.785156 -8.394531 8.285156 -8.207031 8.765625 -7.9375 C 8.691406 -7.8125 8.628906 -7.648438 8.578125 -7.453125 C 8.523438 -7.265625 8.488281 -7.109375 8.46875 -6.984375 L 8.328125 -6.984375 C 7.972656 -7.390625 7.554688 -7.691406 7.078125 -7.890625 C 6.609375 -8.097656 6.113281 -8.203125 5.59375 -8.203125 C 5.03125 -8.203125 4.523438 -8.113281 4.078125 -7.9375 C 3.628906 -7.757812 3.25 -7.5 2.9375 -7.15625 C 2.625 -6.820312 2.378906 -6.40625 2.203125 -5.90625 C 2.035156 -5.40625 1.953125 -4.84375 1.953125 -4.21875 C 1.953125 -3.601562 2.035156 -3.050781 2.203125 -2.5625 C 2.378906 -2.082031 2.625 -1.671875 2.9375 -1.328125 C 3.257812 -0.992188 3.644531 -0.738281 4.09375 -0.5625 C 4.550781 -0.382812 5.070312 -0.296875 5.65625 -0.296875 C 6.007812 -0.296875 6.375 -0.328125 6.75 -0.390625 C 7.125 -0.460938 7.421875 -0.5625 7.640625 -0.6875 C 7.640625 -0.726562 7.644531 -0.878906 7.65625 -1.140625 C 7.664062 -1.398438 7.671875 -1.738281 7.671875 -2.15625 C 7.671875 -2.269531 7.671875 -2.378906 7.671875 -2.484375 C 7.671875 -2.597656 7.664062 -2.703125 7.65625 -2.796875 L 7.609375 -3.890625 C 7.816406 -3.847656 8.015625 -3.828125 8.203125 -3.828125 C 8.296875 -3.828125 8.382812 -3.832031 8.46875 -3.84375 C 8.5625 -3.851562 8.648438 -3.867188 8.734375 -3.890625 C 8.710938 -3.546875 8.695312 -3.1875 8.6875 -2.8125 C 8.6875 -2.4375 8.6875 -1.988281 8.6875 -1.46875 L 8.703125 -0.375 C 8.453125 -0.289062 8.179688 -0.210938 7.890625 -0.140625 C 7.597656 -0.0664062 7.304688 -0.00390625 7.015625 0.046875 C 6.734375 0.109375 6.460938 0.148438 6.203125 0.171875 C 5.941406 0.203125 5.710938 0.21875 5.515625 0.21875 C 4.765625 0.21875 4.09375 0.125 3.5 -0.0625 C 2.914062 -0.257812 2.414062 -0.546875 2 -0.921875 C 1.59375 -1.304688 1.28125 -1.773438 1.0625 -2.328125 C 0.851562 -2.878906 0.75 -3.507812 0.75 -4.21875 C 0.75 -4.914062 0.859375 -5.535156 1.078125 -6.078125 C 1.304688 -6.628906 1.628906 -7.09375 2.046875 -7.46875 C 2.472656 -7.851562 2.984375 -8.144531 3.578125 -8.34375 C 4.179688 -8.550781 4.859375 -8.65625 5.609375 -8.65625 Z M 5.609375 -8.65625 "/></g></g></g><g fill="#cab583" fill-opacity="1"><g transform="translate(175.156503, 94.456432)"><g><path d="M 1.734375 -4.21875 C 1.734375 -3.582031 1.8125 -3.015625 1.96875 -2.515625 C 2.125 -2.023438 2.351562 -1.609375 2.65625 -1.265625 C 2.957031 -0.929688 3.316406 -0.675781 3.734375 -0.5 C 4.148438 -0.320312 4.625 -0.234375 5.15625 -0.234375 C 5.6875 -0.234375 6.164062 -0.320312 6.59375 -0.5 C 7.019531 -0.675781 7.378906 -0.929688 7.671875 -1.265625 C 7.972656 -1.609375 8.203125 -2.023438 8.359375 -2.515625 C 8.515625 -3.015625 8.59375 -3.582031 8.59375 -4.21875 C 8.59375 -5.488281 8.285156 -6.46875 7.671875 -7.15625 C 7.066406 -7.851562 6.226562 -8.203125 5.15625 -8.203125 C 4.625 -8.203125 4.148438 -8.113281 3.734375 -7.9375 C 3.316406 -7.757812 2.957031 -7.5 2.65625 -7.15625 C 2.351562 -6.820312 2.125 -6.40625 1.96875 -5.90625 C 1.8125 -5.414062 1.734375 -4.851562 1.734375 -4.21875 Z M 5.15625 -8.65625 C 5.851562 -8.65625 6.488281 -8.550781 7.0625 -8.34375 C 7.632812 -8.144531 8.125 -7.851562 8.53125 -7.46875 C 8.9375 -7.09375 9.25 -6.628906 9.46875 -6.078125 C 9.695312 -5.535156 9.8125 -4.914062 9.8125 -4.21875 C 9.8125 -3.519531 9.695312 -2.894531 9.46875 -2.34375 C 9.25 -1.800781 8.9375 -1.335938 8.53125 -0.953125 C 8.125 -0.578125 7.632812 -0.285156 7.0625 -0.078125 C 6.488281 0.117188 5.851562 0.21875 5.15625 0.21875 C 4.46875 0.21875 3.84375 0.117188 3.28125 -0.078125 C 2.71875 -0.273438 2.226562 -0.5625 1.8125 -0.9375 C 1.40625 -1.320312 1.085938 -1.785156 0.859375 -2.328125 C 0.628906 -2.878906 0.515625 -3.507812 0.515625 -4.21875 C 0.515625 -4.894531 0.625 -5.503906 0.84375 -6.046875 C 1.0625 -6.597656 1.367188 -7.066406 1.765625 -7.453125 C 2.171875 -7.835938 2.660156 -8.132812 3.234375 -8.34375 C 3.804688 -8.550781 4.445312 -8.65625 5.15625 -8.65625 Z M 5.15625 -8.65625 "/></g></g></g><g fill="#cab583" fill-opacity="1"><g transform="translate(187.320863, 94.456432)"><g><path d="M 1.171875 -8.5 C 1.285156 -8.476562 1.394531 -8.460938 1.5 -8.453125 C 1.601562 -8.441406 1.707031 -8.4375 1.8125 -8.4375 C 2 -8.4375 2.175781 -8.457031 2.34375 -8.5 C 2.332031 -8.40625 2.316406 -8.234375 2.296875 -7.984375 C 2.285156 -7.734375 2.269531 -7.421875 2.25 -7.046875 C 2.238281 -6.671875 2.226562 -6.25 2.21875 -5.78125 C 2.207031 -5.3125 2.203125 -4.8125 2.203125 -4.28125 C 2.203125 -3.820312 2.210938 -3.382812 2.234375 -2.96875 C 2.253906 -2.5625 2.332031 -2.1875 2.46875 -1.84375 C 2.664062 -1.289062 2.976562 -0.90625 3.40625 -0.6875 C 3.84375 -0.46875 4.363281 -0.359375 4.96875 -0.359375 C 5.457031 -0.359375 5.867188 -0.4375 6.203125 -0.59375 C 6.535156 -0.75 6.804688 -0.960938 7.015625 -1.234375 C 7.109375 -1.359375 7.195312 -1.507812 7.28125 -1.6875 C 7.363281 -1.863281 7.429688 -2.070312 7.484375 -2.3125 C 7.546875 -2.5625 7.59375 -2.847656 7.625 -3.171875 C 7.65625 -3.492188 7.671875 -3.878906 7.671875 -4.328125 L 7.671875 -6.21875 C 7.671875 -7.425781 7.648438 -8.1875 7.609375 -8.5 C 7.691406 -8.476562 7.773438 -8.460938 7.859375 -8.453125 C 7.941406 -8.441406 8.019531 -8.4375 8.09375 -8.4375 C 8.175781 -8.4375 8.242188 -8.441406 8.296875 -8.453125 C 8.359375 -8.460938 8.421875 -8.476562 8.484375 -8.5 C 8.472656 -8.3125 8.457031 -8.046875 8.4375 -7.703125 C 8.414062 -7.359375 8.394531 -6.960938 8.375 -6.515625 C 8.351562 -6.066406 8.332031 -5.578125 8.3125 -5.046875 C 8.289062 -4.515625 8.273438 -3.96875 8.265625 -3.40625 C 8.242188 -2.21875 7.921875 -1.316406 7.296875 -0.703125 C 6.671875 -0.0859375 5.8125 0.21875 4.71875 0.21875 C 3.5 0.21875 2.601562 -0.0625 2.03125 -0.625 C 1.457031 -1.195312 1.171875 -2.101562 1.171875 -3.34375 C 1.171875 -3.65625 1.179688 -3.992188 1.203125 -4.359375 C 1.222656 -4.722656 1.234375 -5.050781 1.234375 -5.34375 C 1.234375 -5.519531 1.234375 -5.691406 1.234375 -5.859375 C 1.234375 -6.023438 1.226562 -6.21875 1.21875 -6.4375 C 1.21875 -6.664062 1.210938 -6.941406 1.203125 -7.265625 C 1.191406 -7.585938 1.179688 -8 1.171875 -8.5 Z M 5.25 -11.140625 L 6.765625 -9.0625 L 6.3125 -9.0625 L 4.828125 -10.375 L 3.34375 -9.0625 L 2.890625 -9.0625 L 4.421875 -11.140625 Z M 5.25 -11.140625 "/></g></g></g><g fill="#cab583" fill-opacity="1"><g transform="translate(198.803314, 94.456432)"><g><path d="M 0.25 -8.5 C 0.820312 -8.476562 1.363281 -8.460938 1.875 -8.453125 C 2.394531 -8.441406 2.921875 -8.4375 3.453125 -8.4375 C 3.984375 -8.4375 4.503906 -8.441406 5.015625 -8.453125 C 5.535156 -8.460938 6.082031 -8.476562 6.65625 -8.5 C 6.625 -8.414062 6.601562 -8.34375 6.59375 -8.28125 C 6.59375 -8.226562 6.59375 -8.164062 6.59375 -8.09375 C 6.59375 -7.976562 6.613281 -7.851562 6.65625 -7.71875 C 6.476562 -7.738281 6.28125 -7.753906 6.0625 -7.765625 C 5.851562 -7.785156 5.628906 -7.800781 5.390625 -7.8125 C 5.148438 -7.832031 4.910156 -7.84375 4.671875 -7.84375 C 4.441406 -7.851562 4.21875 -7.859375 4 -7.859375 L 3.96875 -6.71875 C 3.957031 -6.476562 3.953125 -6.257812 3.953125 -6.0625 C 3.953125 -5.863281 3.953125 -5.679688 3.953125 -5.515625 L 3.953125 -3 C 3.953125 -2.601562 3.960938 -2.148438 3.984375 -1.640625 C 4.003906 -1.128906 4.03125 -0.5625 4.0625 0.0625 C 3.945312 0.0390625 3.835938 0.0234375 3.734375 0.015625 C 3.640625 0.00390625 3.546875 0 3.453125 0 C 3.347656 0 3.242188 0.00390625 3.140625 0.015625 C 3.035156 0.0234375 2.9375 0.0390625 2.84375 0.0625 C 2.863281 -0.488281 2.882812 -1.03125 2.90625 -1.5625 C 2.925781 -2.09375 2.9375 -2.566406 2.9375 -2.984375 L 2.9375 -5.515625 C 2.9375 -5.691406 2.9375 -5.878906 2.9375 -6.078125 C 2.9375 -6.273438 2.929688 -6.488281 2.921875 -6.71875 L 2.90625 -7.859375 C 2.40625 -7.859375 1.910156 -7.84375 1.421875 -7.8125 C 0.941406 -7.78125 0.550781 -7.75 0.25 -7.71875 C 0.289062 -7.851562 0.3125 -7.984375 0.3125 -8.109375 C 0.3125 -8.179688 0.300781 -8.242188 0.28125 -8.296875 C 0.269531 -8.359375 0.257812 -8.425781 0.25 -8.5 Z M 0.25 -8.5 "/></g></g></g></svg>